<?xml version="1.0" standalone="no"?>
<!DOCTYPE svg PUBLIC "-//W3C//DTD SVG 20010904//EN"
 "http://www.w3.org/TR/2001/REC-SVG-20010904/DTD/svg10.dtd">
<svg version="1.0" xmlns="http://www.w3.org/2000/svg"
 width="256.000000pt" height="256.000000pt" viewBox="0 0 256.000000 256.000000"
 preserveAspectRatio="xMidYMid meet">

<g transform="translate(0.000000,256.000000) scale(0.100000,-0.100000)"
fill="#000000" stroke="none">
<path d="M1125 2509 c-369 -47 -694 -257 -897 -579 -140 -224 -207 -505 -180
-762 42 -400 245 -727 582 -940 224 -140 505 -207 762 -180 400 42 727 245
940 582 140 224 207 505 180 762 -42 400 -245 727 -582 940 -235 148 -528 212
-805 177z m269 -39 c274 -27 534 -150 730 -346 357 -357 452 -899 236 -1351
-122 -256 -301 -437 -555 -564 -335 -166 -715 -166 -1050 0 -251 125 -422 296
-545 546 -194 392 -160 848 91 1211 211 305 574 498 964 512 17 1 75 -3 129
-8z"/>
<path d="M960 1795 c-569 -328 -809 -471 -818 -489 -8 -16 -9 -32 -3 -48 7
-18 207 -138 812 -488 442 -255 814 -466 827 -468 15 -3 32 4 48 18 20 20 24
33 24 82 0 32 2 58 5 58 3 0 29 -14 58 -30 63 -35 71 -36 97 -10 20 20 20 33
20 860 0 827 0 840 -20 860 -26 26 -34 25 -97 -10 -29 -16 -55 -30 -58 -30 -3
0 -5 26 -5 58 0 48 -4 62 -23 80 -13 12 -32 22 -43 22 -10 0 -381 -209 -824
-465z m365 -269 c66 -28 76 -99 21 -151 -32 -30 -33 -33 -18 -49 15 -15 18
-14 38 11 19 25 24 26 48 15 31 -14 32 -27 6 -67 l-19 -30 25 -26 25 -27 -31
-22 -32 -23 -20 20 -20 20 -48 -20 c-35 -14 -57 -18 -85 -13 -91 17 -127 116
-65 178 29 28 30 32 18 64 -16 45 -2 82 41 111 39 27 68 29 116 9z m-515 -41
c24 -25 49 -45 56 -45 6 0 30 20 53 45 46 50 51 53 52 28 0 -11 3 -13 6 -5 2
7 22 12 44 12 l39 0 -2 -177 -3 -178 -37 -3 -38 -3 0 118 0 117 -60 -59 -60
-59 -53 52 c-29 29 -56 52 -60 52 -4 0 -7 -49 -7 -110 l0 -110 -35 0 -35 0 0
181 0 181 40 -4 c22 -2 40 0 40 4 0 17 18 6 60 -37z m955 29 c73 -34 84 -133
22 -190 l-34 -31 39 -54 c21 -30 38 -57 38 -61 0 -5 -21 -8 -47 -8 -47 0 -49
1 -83 55 -31 48 -39 55 -67 55 l-33 0 0 -55 0 -55 -40 0 -40 0 0 180 0 180
106 0 c76 0 115 -4 139 -16z m-1079 -411 c-19 -5 -18 -6 4 -23 26 -20 19 -41
-13 -39 -17 1 -18 2 -4 6 21 5 23 23 2 23 -8 0 -15 9 -15 20 0 14 6 20 23 19
19 -1 19 -2 3 -6z m189 -28 c0 -27 -3 -30 -30 -30 -21 0 -31 5 -33 18 -6 33 6
49 35 45 24 -3 28 -8 28 -33z m138 -28 c18 -4 17 -5 -5 -6 -26 -1 -28 2 -26
37 1 36 1 36 5 5 3 -23 10 -33 26 -36z m143 3 c8 0 14 10 14 24 0 14 5 28 11
31 7 5 9 -5 7 -26 -2 -29 -7 -35 -30 -37 -26 -3 -28 -1 -26 35 1 37 1 37 5 6
3 -20 10 -33 19 -33z m177 53 c-7 -2 -14 -19 -14 -36 l-2 -32 -4 30 c-3 16
-10 33 -16 37 -7 4 2 7 18 7 17 0 24 -3 18 -6z m127 -28 c0 -19 -4 -35 -10
-35 -5 0 -10 16 -10 35 0 19 5 35 10 35 6 0 10 -16 10 -35z m165 0 c0 -24 -5
-31 -24 -33 -32 -5 -54 23 -40 50 7 13 19 18 37 16 23 -2 27 -8 27 -33z m137
13 l12 -23 7 25 c6 21 7 19 8 -14 l1 -39 -24 22 -24 23 -5 -24 c-3 -15 -5 -11
-6 15 -1 42 12 48 31 15z"/>
<path d="M1245 1451 c-8 -25 4 -53 23 -49 21 4 36 32 29 52 -9 22 -44 20 -52
-3z"/>
<path d="M1209 1288 c-10 -18 -8 -24 11 -40 20 -16 52 -17 69 -2 6 5 -50 64
-61 64 -4 0 -13 -10 -19 -22z"/>
<path d="M1600 1405 l0 -45 54 0 c57 0 86 16 86 49 0 30 -22 41 -82 41 l-58 0
0 -45z"/>
<path d="M824 1085 c-4 -9 -2 -21 4 -27 15 -15 44 -1 40 19 -4 23 -36 29 -44
8z"/>
<path d="M1574 1085 c-7 -18 3 -35 21 -35 15 0 24 19 18 38 -6 17 -32 15 -39
-3z"/>
</g>
</svg>
